# xmcd
#
# Track frame offsets:
#	150
#	32865
#	58260
#	77620
#	101323
#	124890
#	152965
#	169400
#	188625
#	212350
#	232475
#	246310
#	260700
#	291023
#	312903
#
# Disc length: 4522 seconds
#
# Revision: 1
# Processed by: cddbd v1.5.1PL0 Copyright (c) Steve Scherf et al.
# Submitted via: audiograbber 1.83.01
#
DISCID=dd11a80f
DTITLE=John Campbell - One Believer - Howlin' Mercy - A Man And His Blues [CD 2
DTITLE=)
DYEAR=1900
DGENRE=Blues
TTITLE0=Saddle Up My Pony
TTITLE1=Firin' Line
TTITLE2=Love's Name
TTITLE3=Written In Stone
TTITLE4=Wiseblood
TTITLE5=Wolf Among The Lambs
TTITLE6=Going To Dallas
TTITLE7=Bad Night Blues
TTITLE8=Judgement Day
TTITLE9=Bluebird
TTITLE10=Deep River Rag
TTITLE11=Texas Country Boy
TTITLE12=Sittin' Here Thinkin'
TTITLE13=Sunnyland Train
TTITLE14=White Lightnin' 
EXTD=3 LP in 2 CD\nOne Believer (1991) - CD 1 (1 - 10]\nHowlin' Mercy (1993) CD
EXTD=1 (11 - 14), CD 2 (1 - 6]\nA Man And His Blues (1994) CD 2 (7 - 15)
EXTT0=
EXTT1=
EXTT2=
EXTT3=
EXTT4=
EXTT5=
EXTT6=
EXTT7=
EXTT8=
EXTT9=
EXTT10=
EXTT11=
EXTT12=
EXTT13=
EXTT14=
PLAYORDER=
